<svg viewBox="0 0 1000 680" xmlns="http://www.w3.org/2000/svg" font-family="Segoe UI, Arial, sans-serif">

  <!-- Background -->
  <rect width="1000" height="680" fill="#f5f7fa"/>

  <!-- Subtle dot grid -->
  <pattern id="dots" x="0" y="0" width="20" height="20" patternUnits="userSpaceOnUse">
    <circle cx="2" cy="2" r="1" fill="#dde3ed"/>
  </pattern>
  <rect width="1000" height="680" fill="url(#dots)"/>

  <!-- Title -->
  <text x="500" y="44" text-anchor="middle" fill="#1a2236" font-size="22" font-weight="700" letter-spacing="1">Data Warehouse — Medallion Architecture</text>
  <text x="500" y="66" text-anchor="middle" fill="#6b7a99" font-size="12">Bronze  ›  Silver  ›  Gold</text>

  <!-- Flow arrows -->
  <defs>
    <marker id="arr" markerWidth="8" markerHeight="8" refX="6" refY="3" orient="auto">
      <path d="M0,0 L0,6 L8,3 z" fill="#c5ccd8"/>
    </marker>
    <!-- Card shadows -->
    <filter id="shadow" x="-5%" y="-5%" width="110%" height="115%">
      <feDropShadow dx="0" dy="3" stdDeviation="4" flood-color="#c5ccd8" flood-opacity="0.5"/>
    </filter>
  </defs>
  <line x1="316" y1="340" x2="358" y2="340" stroke="#c5ccd8" stroke-width="2" marker-end="url(#arr)"/>
  <line x1="641" y1="340" x2="683" y2="340" stroke="#c5ccd8" stroke-width="2" marker-end="url(#arr)"/>

  <!-- ═══════════════════════════════════════════════════ -->
  <!-- BRONZE CARD -->
  <rect x="30" y="90" width="286" height="560" rx="12" fill="white" stroke="#e8d5b0" stroke-width="1.5" filter="url(#shadow)"/>
  <!-- Header -->
  <rect x="30" y="90" width="286" height="52" rx="12" fill="#f5e6c8"/>
  <rect x="30" y="122" width="286" height="20" fill="#f5e6c8"/>
  <rect x="30" y="90" width="6" height="560" rx="3" fill="#cd7f32"/>

  <text x="160" y="122" text-anchor="middle" fill="#7a4a0a" font-size="17" font-weight="700">🥉 Bronze Layer</text>

  <!-- Rows -->
  <text x="173" y="161" text-anchor="middle" fill="#9aa0b0" font-size="10" font-weight="600" letter-spacing="1">DEFINITION</text>
  <text x="173" y="178" text-anchor="middle" fill="#2d3a52" font-size="12">Raw, unprocessed data</text>
  <text x="173" y="194" text-anchor="middle" fill="#2d3a52" font-size="12">as-is from sources</text>
  <line x1="50" y1="204" x2="296" y2="204" stroke="#f0f2f5" stroke-width="1"/>

  <text x="173" y="221" text-anchor="middle" fill="#9aa0b0" font-size="10" font-weight="600" letter-spacing="1">OBJECTIVE</text>
  <text x="173" y="238" text-anchor="middle" fill="#2d3a52" font-size="12">Traceability &amp; Debugging</text>
  <line x1="50" y1="248" x2="296" y2="248" stroke="#f0f2f5" stroke-width="1"/>

  <text x="173" y="265" text-anchor="middle" fill="#9aa0b0" font-size="10" font-weight="600" letter-spacing="1">OBJECT TYPE</text>
  <rect x="128" y="271" width="90" height="22" rx="11" fill="#fdf0dd" stroke="#cd7f32" stroke-width="1"/>
  <text x="173" y="286" text-anchor="middle" fill="#cd7f32" font-size="12" font-weight="600">Tables</text>
  <line x1="50" y1="303" x2="296" y2="303" stroke="#f0f2f5" stroke-width="1"/>

  <text x="173" y="320" text-anchor="middle" fill="#9aa0b0" font-size="10" font-weight="600" letter-spacing="1">LOAD METHOD</text>
  <text x="173" y="337" text-anchor="middle" fill="#2d3a52" font-size="12">Full Load</text>
  <text x="173" y="353" text-anchor="middle" fill="#9aa0b0" font-size="11">(Truncate &amp; Insert)</text>
  <line x1="50" y1="363" x2="296" y2="363" stroke="#f0f2f5" stroke-width="1"/>

  <text x="173" y="380" text-anchor="middle" fill="#9aa0b0" font-size="10" font-weight="600" letter-spacing="1">DATA TRANSFORMATION</text>
  <rect x="108" y="387" width="130" height="22" rx="11" fill="#fdf0dd" stroke="#cd7f32" stroke-width="1"/>
  <text x="173" y="402" text-anchor="middle" fill="#cd7f32" font-size="12">None (as-is)</text>
  <line x1="50" y1="419" x2="296" y2="419" stroke="#f0f2f5" stroke-width="1"/>

  <text x="173" y="436" text-anchor="middle" fill="#9aa0b0" font-size="10" font-weight="600" letter-spacing="1">DATA MODELING</text>
  <rect x="108" y="443" width="130" height="22" rx="11" fill="#fdf0dd" stroke="#cd7f32" stroke-width="1"/>
  <text x="173" y="458" text-anchor="middle" fill="#cd7f32" font-size="12">None (as-is)</text>
  <line x1="50" y1="475" x2="296" y2="475" stroke="#f0f2f5" stroke-width="1"/>

  <text x="173" y="492" text-anchor="middle" fill="#9aa0b0" font-size="10" font-weight="600" letter-spacing="1">TARGET AUDIENCE</text>
  <rect x="83" y="499" width="180" height="24" rx="12" fill="#fdf0dd" stroke="#cd7f32" stroke-width="1"/>
  <text x="173" y="515" text-anchor="middle" fill="#7a4a0a" font-size="11" font-weight="600">⚙  Data Engineers</text>
  <line x1="50" y1="533" x2="296" y2="533" stroke="#f0f2f5" stroke-width="1"/>

  <text x="173" y="550" text-anchor="middle" fill="#9aa0b0" font-size="10" font-weight="600" letter-spacing="1">WORKFLOW</text>
  <text x="173" y="567" text-anchor="middle" fill="#2d3a52" font-size="11">Analyse › Ingest › Validate › Document</text>
  <text x="173" y="584" text-anchor="middle" fill="#9aa0b0" font-size="10">Data Completeness &amp; Schema Checks</text>

  <!-- ═══════════════════════════════════════════════════ -->
  <!-- SILVER CARD -->
  <rect x="357" y="90" width="286" height="560" rx="12" fill="white" stroke="#cfd6e0" stroke-width="1.5" filter="url(#shadow)"/>
  <rect x="357" y="90" width="286" height="52" rx="12" fill="#eaecf0"/>
  <rect x="357" y="122" width="286" height="20" fill="#eaecf0"/>
  <rect x="357" y="90" width="6" height="560" rx="3" fill="#607d8b"/>

  <text x="487" y="122" text-anchor="middle" fill="#2d3a52" font-size="17" font-weight="700">🥈 Silver Layer</text>

  <text x="500" y="161" text-anchor="middle" fill="#9aa0b0" font-size="10" font-weight="600" letter-spacing="1">DEFINITION</text>
  <text x="500" y="178" text-anchor="middle" fill="#2d3a52" font-size="12">Clean &amp; standardized data</text>
  <line x1="377" y1="204" x2="623" y2="204" stroke="#f0f2f5" stroke-width="1"/>

  <text x="500" y="221" text-anchor="middle" fill="#9aa0b0" font-size="10" font-weight="600" letter-spacing="1">OBJECTIVE</text>
  <text x="500" y="238" text-anchor="middle" fill="#2d3a52" font-size="12">Intermediate — Prepare for Analysis</text>
  <line x1="377" y1="248" x2="623" y2="248" stroke="#f0f2f5" stroke-width="1"/>

  <text x="500" y="265" text-anchor="middle" fill="#9aa0b0" font-size="10" font-weight="600" letter-spacing="1">OBJECT TYPE</text>
  <rect x="455" y="271" width="90" height="22" rx="11" fill="#eef1f5" stroke="#607d8b" stroke-width="1"/>
  <text x="500" y="286" text-anchor="middle" fill="#607d8b" font-size="12" font-weight="600">Tables</text>
  <line x1="377" y1="303" x2="623" y2="303" stroke="#f0f2f5" stroke-width="1"/>

  <text x="500" y="320" text-anchor="middle" fill="#9aa0b0" font-size="10" font-weight="600" letter-spacing="1">LOAD METHOD</text>
  <text x="500" y="337" text-anchor="middle" fill="#2d3a52" font-size="12">Full Load</text>
  <text x="500" y="353" text-anchor="middle" fill="#9aa0b0" font-size="11">(Truncate &amp; Insert)</text>
  <line x1="377" y1="363" x2="623" y2="363" stroke="#f0f2f5" stroke-width="1"/>

  <text x="500" y="380" text-anchor="middle" fill="#9aa0b0" font-size="10" font-weight="600" letter-spacing="1">DATA TRANSFORMATION</text>
  <text x="500" y="397" text-anchor="middle" fill="#2d3a52" font-size="11">· Data Cleaning     · Data Standardization</text>
  <text x="500" y="413" text-anchor="middle" fill="#2d3a52" font-size="11">· Data Normalization · Derived Columns</text>
  <text x="500" y="429" text-anchor="middle" fill="#2d3a52" font-size="11">· Data Enrichment</text>
  <line x1="377" y1="441" x2="623" y2="441" stroke="#f0f2f5" stroke-width="1"/>

  <text x="500" y="458" text-anchor="middle" fill="#9aa0b0" font-size="10" font-weight="600" letter-spacing="1">DATA MODELING</text>
  <rect x="435" y="465" width="130" height="22" rx="11" fill="#eef1f5" stroke="#607d8b" stroke-width="1"/>
  <text x="500" y="480" text-anchor="middle" fill="#607d8b" font-size="12">None (as-is)</text>
  <line x1="377" y1="497" x2="623" y2="497" stroke="#f0f2f5" stroke-width="1"/>

  <text x="500" y="514" text-anchor="middle" fill="#9aa0b0" font-size="10" font-weight="600" letter-spacing="1">TARGET AUDIENCE</text>
  <rect x="377" y="521" width="112" height="24" rx="12" fill="#eef1f5" stroke="#607d8b" stroke-width="1"/>
  <text x="433" y="537" text-anchor="middle" fill="#3d5a66" font-size="11" font-weight="600">⚙  Engineers</text>
  <rect x="497" y="521" width="126" height="24" rx="12" fill="#eef1f5" stroke="#607d8b" stroke-width="1"/>
  <text x="560" y="537" text-anchor="middle" fill="#3d5a66" font-size="11" font-weight="600">📊  Analysts</text>
  <line x1="377" y1="555" x2="623" y2="555" stroke="#f0f2f5" stroke-width="1"/>

  <text x="500" y="572" text-anchor="middle" fill="#9aa0b0" font-size="10" font-weight="600" letter-spacing="1">WORKFLOW</text>
  <text x="500" y="589" text-anchor="middle" fill="#2d3a52" font-size="11">Analyse › Cleanse › Validate › Document</text>
  <text x="500" y="606" text-anchor="middle" fill="#9aa0b0" font-size="10">Data Correctness Checks</text>

  <!-- ═══════════════════════════════════════════════════ -->
  <!-- GOLD CARD -->
  <rect x="684" y="90" width="286" height="560" rx="12" fill="white" stroke="#e8d48a" stroke-width="1.5" filter="url(#shadow)"/>
  <rect x="684" y="90" width="286" height="52" rx="12" fill="#fdf6d8"/>
  <rect x="684" y="122" width="286" height="20" fill="#fdf6d8"/>
  <rect x="684" y="90" width="6" height="560" rx="3" fill="#b8962e"/>

  <text x="814" y="122" text-anchor="middle" fill="#6b4f00" font-size="17" font-weight="700">🥇 Gold Layer</text>

  <text x="827" y="161" text-anchor="middle" fill="#9aa0b0" font-size="10" font-weight="600" letter-spacing="1">DEFINITION</text>
  <text x="827" y="178" text-anchor="middle" fill="#2d3a52" font-size="12">Business-Ready data</text>
  <line x1="704" y1="204" x2="950" y2="204" stroke="#f0f2f5" stroke-width="1"/>

  <text x="827" y="221" text-anchor="middle" fill="#9aa0b0" font-size="10" font-weight="600" letter-spacing="1">OBJECTIVE</text>
  <text x="827" y="238" text-anchor="middle" fill="#2d3a52" font-size="12">Reporting &amp; Analytics</text>
  <line x1="704" y1="248" x2="950" y2="248" stroke="#f0f2f5" stroke-width="1"/>

  <text x="827" y="265" text-anchor="middle" fill="#9aa0b0" font-size="10" font-weight="600" letter-spacing="1">OBJECT TYPE</text>
  <rect x="782" y="271" width="90" height="22" rx="11" fill="#fdf6d8" stroke="#b8962e" stroke-width="1"/>
  <text x="827" y="286" text-anchor="middle" fill="#b8962e" font-size="12" font-weight="600">Views</text>
  <line x1="704" y1="303" x2="950" y2="303" stroke="#f0f2f5" stroke-width="1"/>

  <text x="827" y="320" text-anchor="middle" fill="#9aa0b0" font-size="10" font-weight="600" letter-spacing="1">LOAD METHOD</text>
  <rect x="762" y="327" width="130" height="22" rx="11" fill="#fdf6d8" stroke="#b8962e" stroke-width="1"/>
  <text x="827" y="342" text-anchor="middle" fill="#b8962e" font-size="12">None</text>
  <line x1="704" y1="359" x2="950" y2="359" stroke="#f0f2f5" stroke-width="1"/>

  <text x="827" y="376" text-anchor="middle" fill="#9aa0b0" font-size="10" font-weight="600" letter-spacing="1">DATA TRANSFORMATION</text>
  <text x="827" y="393" text-anchor="middle" fill="#2d3a52" font-size="11">· Data Integration</text>
  <text x="827" y="409" text-anchor="middle" fill="#2d3a52" font-size="11">· Data Aggregation</text>
  <text x="827" y="425" text-anchor="middle" fill="#2d3a52" font-size="11">· Business Logic &amp; Rules</text>
  <line x1="704" y1="441" x2="950" y2="441" stroke="#f0f2f5" stroke-width="1"/>

  <text x="827" y="458" text-anchor="middle" fill="#9aa0b0" font-size="10" font-weight="600" letter-spacing="1">DATA MODELING</text>
  <text x="827" y="475" text-anchor="middle" fill="#2d3a52" font-size="11">· Star Schema</text>
  <text x="827" y="491" text-anchor="middle" fill="#2d3a52" font-size="11">· Aggregated Objects  · Flat Tables</text>
  <line x1="704" y1="503" x2="950" y2="503" stroke="#f0f2f5" stroke-width="1"/>

  <text x="827" y="520" text-anchor="middle" fill="#9aa0b0" font-size="10" font-weight="600" letter-spacing="1">TARGET AUDIENCE</text>
  <rect x="704" y="527" width="112" height="24" rx="12" fill="#fdf6d8" stroke="#b8962e" stroke-width="1"/>
  <text x="760" y="543" text-anchor="middle" fill="#6b4f00" font-size="11" font-weight="600">📊  Analysts</text>
  <rect x="824" y="527" width="126" height="24" rx="12" fill="#fdf6d8" stroke="#b8962e" stroke-width="1"/>
  <text x="887" y="543" text-anchor="middle" fill="#6b4f00" font-size="11" font-weight="600">💼  Business Users</text>
  <line x1="704" y1="561" x2="950" y2="561" stroke="#f0f2f5" stroke-width="1"/>

  <text x="827" y="578" text-anchor="middle" fill="#9aa0b0" font-size="10" font-weight="600" letter-spacing="1">WORKFLOW</text>
  <text x="827" y="595" text-anchor="middle" fill="#2d3a52" font-size="11">Analyse › Integrate › Validate › Document</text>
  <text x="827" y="612" text-anchor="middle" fill="#9aa0b0" font-size="10">Data Integration Checks</text>

  <!-- Footer -->
  <text x="500" y="662" text-anchor="middle" fill="#c5ccd8" font-size="10">Data Warehouse · Medallion Architecture · Bronze › Silver › Gold</text>

</svg>
